<svg xmlns="http://www.w3.org/2000/svg" width="26.676" height="26.677" viewBox="0 0 26.676 26.677"><defs><style>.a{fill:#368348;}</style></defs><g transform="translate(-60.341 -60.338)"><path class="a" d="M73.679,60.338A13.338,13.338,0,1,0,87.017,73.677,13.353,13.353,0,0,0,73.679,60.338Zm0,24.573A11.234,11.234,0,1,1,84.913,73.677,11.247,11.247,0,0,1,73.679,84.911Z" transform="translate(0 0)"/><path class="a" d="M147.839,169.443l-8.546,8.708-4.235-3.066a1.2,1.2,0,1,0-1.41,1.948l5.073,3.673a1.2,1.2,0,0,0,1.563-.132l9.271-9.446a1.2,1.2,0,0,0-1.716-1.684Z" transform="translate(-67.846 -101.332)"/></g></svg>